<svg version="1.1" id="Layer_1" xmlns="http://www.w3.org/2000/svg" xmlns:xlink="http://www.w3.org/1999/xlink" x="0px" y="0px"
	 width="100%" viewBox="0 0 512 512" enable-background="new 0 0 512 512" xml:space="preserve">
<path fill="#FFFFFF" opacity="1.000000" stroke="none" 
	d="
M513.000000,335.000000 
	C513.000000,394.303406 513.000000,453.606812 513.000000,512.955078 
	C342.449341,512.955078 171.898651,512.955078 1.000000,512.955078 
	C1.000000,453.979553 1.000000,394.958435 1.468712,335.469849 
	C45.487930,335.002380 89.038437,335.002380 132.588943,335.002380 
	C90.150925,323.760834 70.271194,290.121674 68.976105,261.523834 
	C68.062836,241.357162 73.867638,223.467896 86.753059,207.941269 
	C99.496117,192.586227 116.100075,183.668243 135.459000,179.359650 
	C126.521164,179.021774 117.726685,179.011124 108.932228,179.023666 
	C73.302551,179.074463 37.672874,179.132401 1.784995,179.126343 
	C1.351197,179.043289 1.175599,179.021637 1.000000,179.000000 
	C1.000000,119.696526 1.000000,60.393059 1.000000,1.044794 
	C171.550888,1.044794 342.101807,1.044794 513.000000,1.044794 
	C513.000000,60.353775 513.000000,119.708229 512.531372,179.525604 
	C495.099976,179.988541 478.137207,179.988541 461.053619,179.988541 
	C458.137909,203.050110 455.266663,225.759750 452.395447,248.469406 
	C452.066986,248.434143 451.738525,248.398880 451.410034,248.363632 
	C448.201813,225.697845 444.993561,203.032074 441.762634,180.206024 
	C424.257141,180.206024 407.194427,180.206024 390.060120,180.206024 
	C390.060120,231.822983 390.060120,283.200256 390.060120,334.619629 
	C401.692841,334.619629 413.074768,334.619629 424.909058,334.619629 
	C424.909058,303.327972 424.909058,272.341125 424.909058,241.354279 
	C425.262543,241.325043 425.616058,241.295807 425.969543,241.266571 
	C430.467560,272.407074 434.965576,303.547607 439.457336,334.645020 
	C447.959961,334.645020 456.022552,334.645020 464.306915,334.645020 
	C468.625244,302.350311 472.911316,270.296997 477.197357,238.243668 
	C477.533600,238.269043 477.869873,238.294418 478.206116,238.319778 
	C478.206116,270.386749 478.206116,302.453674 478.206116,335.000000 
	C490.100342,335.000000 501.550171,335.000000 513.000000,335.000000 
M220.997070,301.500000 
	C220.997070,290.766693 220.997070,280.033386 220.997070,269.450043 
	C225.439148,269.450043 229.048111,269.450043 233.158981,269.450043 
	C233.158981,290.909210 233.158981,312.119659 233.158981,333.316803 
	C246.734116,333.316803 259.788208,333.316803 272.783081,333.316803 
	C272.783081,282.251282 272.783081,231.526886 272.783081,180.743698 
	C259.414215,180.743698 246.336441,180.743698 232.940598,180.743698 
	C232.940598,198.981430 232.940598,216.921936 232.940598,235.033707 
	C228.883743,235.033707 225.149460,235.033707 220.868347,235.033707 
	C220.868347,216.796860 220.868347,198.763275 220.868347,180.808701 
	C207.270432,180.808701 194.223404,180.808701 181.293655,180.808701 
	C181.293655,231.892181 181.293655,282.609741 181.293655,333.306335 
	C194.672531,333.306335 207.726379,333.306335 220.997070,333.306335 
	C220.997070,322.805481 220.997070,312.652740 220.997070,301.500000 
M335.702484,334.255280 
	C347.701172,332.802277 354.754517,327.566864 356.989838,317.876495 
	C357.840820,314.187500 358.024139,310.280792 358.036011,306.471802 
	C358.165283,264.985901 358.200897,223.499710 358.252228,182.013596 
	C358.252960,181.411484 358.128479,180.809204 358.064392,180.224976 
	C344.616760,180.224976 331.538696,180.224976 318.093109,180.224976 
	C318.093109,182.272064 318.093353,184.068054 318.093079,185.864059 
	C318.087280,222.018997 318.103455,258.173950 318.063049,294.328857 
	C318.049866,306.130646 315.810913,308.220612 303.943665,307.970154 
	C303.688232,307.964783 303.426392,308.264404 303.175049,308.426117 
	C303.175049,317.163757 303.175049,325.901398 303.175049,334.397583 
	C313.914215,334.397583 324.369293,334.397583 335.702484,334.255280 
M135.670227,291.952545 
	C140.551941,293.093811 145.433670,294.235107 150.685547,295.462921 
	C150.685547,269.406647 150.685547,244.545120 150.685547,219.700821 
	C135.788010,218.790192 120.412323,228.324448 114.181114,242.154587 
	C105.811584,260.730713 114.639275,281.826904 135.670227,291.952545 
M100.214020,215.311539 
	C103.263809,223.071091 106.313591,230.830658 109.294350,238.414566 
	C112.566597,234.283249 115.358482,229.894501 119.004623,226.396103 
	C122.709435,222.841446 127.256645,220.164749 131.508942,217.049362 
	C119.784706,212.115509 107.882233,207.106659 95.176292,201.759689 
	C96.993820,206.619904 98.481537,210.598206 100.214020,215.311539 
M108.041725,243.366852 
	C107.718674,243.135788 107.283516,242.632370 107.088585,242.712601 
	C95.442863,247.506073 83.816933,252.347626 71.417488,257.505585 
	C84.096870,262.744690 95.888725,267.617065 108.514748,272.834106 
	C104.993179,262.756348 104.681915,253.493729 108.041725,243.366852 
M99.226883,310.658234 
	C109.834648,306.147888 120.442413,301.637543 130.086990,297.536743 
	C123.164360,290.887390 116.264595,284.260010 109.350601,277.618927 
	C105.041962,288.417267 100.422867,299.993622 95.510696,312.304504 
	C97.090988,311.591064 97.804359,311.269012 99.226883,310.658234 
M150.969452,311.528015 
	C150.969452,307.912537 150.969452,304.297058 150.969452,300.846588 
	C145.343018,299.943420 140.255844,299.126801 134.950134,298.275116 
	C140.105820,310.110931 145.139328,321.666260 150.172821,333.221558 
	C150.438370,333.124481 150.703903,333.027374 150.969452,332.930298 
	C150.969452,326.126282 150.969452,319.322266 150.969452,311.528015 
M142.736557,198.167435 
	C140.177109,204.004349 137.617676,209.841278 134.989639,215.834610 
	C140.471664,214.947830 145.592178,214.119522 150.757736,213.283920 
	C150.757736,202.653595 150.757736,192.142410 150.757736,181.631210 
	C150.505188,181.555649 150.252655,181.480087 150.000107,181.404526 
	C147.678909,186.757629 145.357697,192.110748 142.736557,198.167435 
z"/>
<path fill="#010101" opacity="1.000000" stroke="none" 
	d="
M513.000000,334.666687 
	C501.550171,335.000000 490.100342,335.000000 478.206116,335.000000 
	C478.206116,302.453674 478.206116,270.386749 478.206116,238.319778 
	C477.869873,238.294418 477.533600,238.269043 477.197357,238.243668 
	C472.911316,270.296997 468.625244,302.350311 464.306915,334.645020 
	C456.022552,334.645020 447.959961,334.645020 439.457336,334.645020 
	C434.965576,303.547607 430.467560,272.407074 425.969543,241.266571 
	C425.616058,241.295807 425.262543,241.325043 424.909058,241.354279 
	C424.909058,272.341125 424.909058,303.327972 424.909058,334.619629 
	C413.074768,334.619629 401.692841,334.619629 390.060120,334.619629 
	C390.060120,283.200256 390.060120,231.822983 390.060120,180.206024 
	C407.194427,180.206024 424.257141,180.206024 441.762634,180.206024 
	C444.993561,203.032074 448.201813,225.697845 451.410034,248.363632 
	C451.738525,248.398880 452.066986,248.434143 452.395447,248.469406 
	C455.266663,225.759750 458.137909,203.050110 461.053619,179.988541 
	C478.137207,179.988541 495.099976,179.988541 512.531372,179.994263 
	C513.000000,180.444443 513.000000,180.888901 512.710083,181.965607 
	C512.291504,183.575958 512.050415,184.553970 512.050049,185.532089 
	C512.031555,233.289215 512.025574,281.046356 512.074219,328.803436 
	C512.075623,330.202576 512.677856,331.601166 513.000000,333.000000 
	C513.000000,333.444458 513.000000,333.888885 513.000000,334.666687 
z"/>
<path fill="#030303" opacity="1.000000" stroke="none" 
	d="
M2.043195,179.187714 
	C37.672874,179.132401 73.302551,179.074463 108.932228,179.023666 
	C117.726685,179.011124 126.521164,179.021774 135.459000,179.359650 
	C116.100075,183.668243 99.496117,192.586227 86.753059,207.941269 
	C73.867638,223.467896 68.062836,241.357162 68.976105,261.523834 
	C70.271194,290.121674 90.150925,323.760834 132.588943,335.002380 
	C89.038437,335.002380 45.487930,335.002380 1.468712,335.001190 
	C1.000000,327.312408 1.000000,319.624847 1.344301,311.338196 
	C7.757338,314.911530 13.826073,319.083984 20.141378,323.425964 
	C21.164440,321.005127 21.985815,319.061523 23.074276,316.485931 
	C15.723392,311.662018 8.361696,306.831024 1.000000,302.000000 
	C1.000000,301.555542 1.000000,301.111115 1.310387,300.052185 
	C1.760803,288.222656 1.900833,277.007599 2.388437,265.862610 
	C10.830811,271.155792 18.997618,276.273224 26.955456,281.697235 
	C28.424873,282.698792 29.723873,284.856537 29.942343,286.623901 
	C30.717834,292.897430 31.300699,299.230438 31.351999,305.545837 
	C31.389011,310.102509 33.563198,311.665039 37.592846,311.927399 
	C37.592846,304.312195 37.592846,296.765991 37.592846,288.669342 
	C44.302418,292.938354 50.780075,297.059784 57.396259,301.269348 
	C59.114243,298.469727 60.651695,295.964294 62.384159,293.141083 
	C55.474724,288.873016 48.807854,284.754791 41.744640,280.391724 
	C48.579773,276.727295 54.913143,273.331848 61.387501,269.860840 
	C59.777241,267.482605 58.583176,265.719025 57.297153,263.819672 
	C50.385151,267.490601 43.702057,271.104980 36.941296,274.567719 
	C35.789001,275.157928 33.912354,275.759583 33.033104,275.238220 
	C23.488068,269.578156 14.075374,263.694916 4.272729,257.654480 
	C13.466320,252.056107 22.292648,246.820724 30.950527,241.320206 
	C33.395294,239.766983 35.252296,239.796295 37.706615,241.154205 
	C44.160301,244.724838 50.757412,248.036255 57.385464,251.496933 
	C58.865742,249.208939 60.010628,247.439346 61.317616,245.419189 
	C54.709694,241.942490 48.406185,238.625961 41.708210,235.101883 
	C48.977840,230.568024 55.555862,226.465500 62.417130,222.186340 
	C60.677208,219.455978 59.109905,216.996506 57.376141,214.275818 
	C50.677513,218.529297 44.225433,222.626221 37.604584,226.830307 
	C37.604584,218.481567 37.604584,210.914047 37.604584,203.340775 
	C33.159863,203.632080 31.296499,205.711151 31.292692,210.296570 
	C31.287590,216.443405 30.569073,222.594635 30.024023,228.732193 
	C29.900999,230.117523 29.659832,232.121277 28.745319,232.710114 
	C19.584044,238.608795 10.270587,244.271103 1.000001,250.000000 
	C1.000000,250.000000 1.000000,249.500000 1.310828,248.968948 
	C1.742479,236.948135 1.863301,225.458389 2.159474,213.680359 
	C9.165680,208.460022 15.996537,203.527954 22.936127,198.517365 
	C21.934998,196.140488 21.025497,193.981171 20.129019,191.852768 
	C13.763247,196.217117 7.907116,200.232071 2.024426,203.763123 
	C2.012975,195.248734 2.028085,187.218231 2.043195,179.187714 
z"/>
<path fill="#F8F8F8" opacity="1.000000" stroke="none" 
	d="
M1.000001,250.466125 
	C10.270587,244.271103 19.584044,238.608795 28.745319,232.710114 
	C29.659832,232.121277 29.900999,230.117523 30.024023,228.732193 
	C30.569073,222.594635 31.287590,216.443405 31.292692,210.296570 
	C31.296499,205.711151 33.159863,203.632080 37.604584,203.340775 
	C37.604584,210.914047 37.604584,218.481567 37.604584,226.830307 
	C44.225433,222.626221 50.677513,218.529297 57.376141,214.275818 
	C59.109905,216.996506 60.677208,219.455978 62.417130,222.186340 
	C55.555862,226.465500 48.977840,230.568024 41.708210,235.101883 
	C48.406185,238.625961 54.709694,241.942490 61.317616,245.419189 
	C60.010628,247.439346 58.865742,249.208939 57.385464,251.496933 
	C50.757412,248.036255 44.160301,244.724838 37.706615,241.154205 
	C35.252296,239.796295 33.395294,239.766983 30.950527,241.320206 
	C22.292648,246.820724 13.466320,252.056107 4.272729,257.654480 
	C14.075374,263.694916 23.488068,269.578156 33.033104,275.238220 
	C33.912354,275.759583 35.789001,275.157928 36.941296,274.567719 
	C43.702057,271.104980 50.385151,267.490601 57.297153,263.819672 
	C58.583176,265.719025 59.777241,267.482605 61.387501,269.860840 
	C54.913143,273.331848 48.579773,276.727295 41.744640,280.391724 
	C48.807854,284.754791 55.474724,288.873016 62.384159,293.141083 
	C60.651695,295.964294 59.114243,298.469727 57.396259,301.269348 
	C50.780075,297.059784 44.302418,292.938354 37.592846,288.669342 
	C37.592846,296.765991 37.592846,304.312195 37.592846,311.927399 
	C33.563198,311.665039 31.389011,310.102509 31.351999,305.545837 
	C31.300699,299.230438 30.717834,292.897430 29.942343,286.623901 
	C29.723873,284.856537 28.424873,282.698792 26.955456,281.697235 
	C18.997618,276.273224 10.830811,271.155792 2.307352,265.638458 
	C1.618975,265.144775 1.326078,265.030029 1.000000,265.000000 
	C1.000000,260.310730 1.000000,255.621490 1.000001,250.466125 
z"/>
<path fill="#F5F5F5" opacity="1.000000" stroke="none" 
	d="
M2.050986,204.247009 
	C7.907116,200.232071 13.763247,196.217117 20.129019,191.852768 
	C21.025497,193.981171 21.934998,196.140488 22.936127,198.517365 
	C15.996537,203.527954 9.165680,208.460022 1.913718,213.696838 
	C1.492612,214.001587 1.000000,214.000000 1.000000,214.000000 
	C1.000000,211.299988 1.000000,208.599976 1.237407,205.416748 
	C1.840902,204.850754 2.032959,204.621902 2.050986,204.247009 
z"/>
<path fill="#F7F7F7" opacity="1.000000" stroke="none" 
	d="
M1.000000,302.449982 
	C8.361696,306.831024 15.723392,311.662018 23.074276,316.485931 
	C21.985815,319.061523 21.164440,321.005127 20.141378,323.425964 
	C13.826073,319.083984 7.757338,314.911530 1.344301,310.869568 
	C1.000000,308.299988 1.000000,305.599976 1.000000,302.449982 
z"/>
<path fill="#1C1C1C" opacity="1.000000" stroke="none" 
	d="
M513.000000,332.531342 
	C512.677856,331.601166 512.075623,330.202576 512.074219,328.803436 
	C512.025574,281.046356 512.031555,233.289215 512.050049,185.532089 
	C512.050415,184.553970 512.291504,183.575958 512.710083,182.298950 
	C513.000000,232.020889 513.000000,282.041779 513.000000,332.531342 
z"/>
<path fill="#303030" opacity="1.000000" stroke="none" 
	d="
M1.000000,265.468658 
	C1.326078,265.030029 1.618975,265.144775 1.959777,265.568359 
	C1.900833,277.007599 1.760803,288.222656 1.310387,299.718872 
	C1.000000,288.645782 1.000000,277.291534 1.000000,265.468658 
z"/>
<path fill="#303030" opacity="1.000000" stroke="none" 
	d="
M1.000000,214.468658 
	C1.000000,214.000000 1.492612,214.001587 1.738368,213.985107 
	C1.863301,225.458389 1.742479,236.948135 1.310828,248.718948 
	C1.000000,237.645767 1.000000,226.291550 1.000000,214.468658 
z"/>
<path fill="#303030" opacity="1.000000" stroke="none" 
	d="
M2.024424,203.763123 
	C2.032959,204.621902 1.840902,204.850754 1.237407,204.966766 
	C1.000000,196.645767 1.000000,188.291534 1.000000,179.468658 
	C1.175599,179.021637 1.351197,179.043289 1.784995,179.126343 
	C2.028085,187.218231 2.012975,195.248734 2.024424,203.763123 
z"/>
<path fill="#020202" opacity="1.000000" stroke="none" 
	d="
M220.997070,302.000000 
	C220.997070,312.652740 220.997070,322.805481 220.997070,333.306335 
	C207.726379,333.306335 194.672531,333.306335 181.293655,333.306335 
	C181.293655,282.609741 181.293655,231.892181 181.293655,180.808701 
	C194.223404,180.808701 207.270432,180.808701 220.868347,180.808701 
	C220.868347,198.763275 220.868347,216.796860 220.868347,235.033707 
	C225.149460,235.033707 228.883743,235.033707 232.940598,235.033707 
	C232.940598,216.921936 232.940598,198.981430 232.940598,180.743698 
	C246.336441,180.743698 259.414215,180.743698 272.783081,180.743698 
	C272.783081,231.526886 272.783081,282.251282 272.783081,333.316803 
	C259.788208,333.316803 246.734116,333.316803 233.158981,333.316803 
	C233.158981,312.119659 233.158981,290.909210 233.158981,269.450043 
	C229.048111,269.450043 225.439148,269.450043 220.997070,269.450043 
	C220.997070,280.033386 220.997070,290.766693 220.997070,302.000000 
z"/>
<path fill="#010101" opacity="1.000000" stroke="none" 
	d="
M335.263428,334.326416 
	C324.369293,334.397583 313.914215,334.397583 303.175049,334.397583 
	C303.175049,325.901398 303.175049,317.163757 303.171265,308.423920 
	C303.426392,308.264404 303.688232,307.964783 303.943665,307.970154 
	C315.810913,308.220612 318.049866,306.130646 318.063049,294.328857 
	C318.103455,258.173950 318.087280,222.018997 318.093079,185.864059 
	C318.093353,184.068054 318.093109,182.272064 318.093109,180.224976 
	C331.538696,180.224976 344.616760,180.224976 358.064392,180.224976 
	C358.128479,180.809204 358.252960,181.411484 358.252228,182.013596 
	C358.200897,223.499710 358.165283,264.985901 358.036011,306.471802 
	C358.024139,310.280792 357.840820,314.187500 356.989838,317.876495 
	C354.754517,327.566864 347.701172,332.802277 335.263428,334.326416 
z"/>
<path fill="#030303" opacity="1.000000" stroke="none" 
	d="
M135.298279,291.841797 
	C114.639275,281.826904 105.811584,260.730713 114.181114,242.154587 
	C120.412323,228.324448 135.788010,218.790192 150.685547,219.700821 
	C150.685547,244.545120 150.685547,269.406647 150.685547,295.462921 
	C145.433670,294.235107 140.551941,293.093811 135.298279,291.841797 
z"/>
<path fill="#070707" opacity="1.000000" stroke="none" 
	d="
M100.091644,214.944016 
	C98.481537,210.598206 96.993820,206.619904 95.176292,201.759689 
	C107.882233,207.106659 119.784706,212.115509 131.508942,217.049362 
	C127.256645,220.164749 122.709435,222.841446 119.004623,226.396103 
	C115.358482,229.894501 112.566597,234.283249 109.294350,238.414566 
	C106.313591,230.830658 103.263809,223.071091 100.091644,214.944016 
z"/>
<path fill="#070707" opacity="1.000000" stroke="none" 
	d="
M107.951027,243.798248 
	C104.681915,253.493729 104.993179,262.756348 108.514748,272.834106 
	C95.888725,267.617065 84.096870,262.744690 71.417488,257.505585 
	C83.816933,252.347626 95.442863,247.506073 107.088585,242.712601 
	C107.283516,242.632370 107.718674,243.135788 107.951027,243.798248 
z"/>
<path fill="#070707" opacity="1.000000" stroke="none" 
	d="
M98.872307,310.802612 
	C97.804359,311.269012 97.090988,311.591064 95.510696,312.304504 
	C100.422867,299.993622 105.041962,288.417267 109.350601,277.618927 
	C116.264595,284.260010 123.164360,290.887390 130.086990,297.536743 
	C120.442413,301.637543 109.834648,306.147888 98.872307,310.802612 
z"/>
<path fill="#0B0B0B" opacity="1.000000" stroke="none" 
	d="
M150.969452,312.023132 
	C150.969452,319.322266 150.969452,326.126282 150.969452,332.930298 
	C150.703903,333.027374 150.438370,333.124481 150.172821,333.221558 
	C145.139328,321.666260 140.105820,310.110931 134.950134,298.275116 
	C140.255844,299.126801 145.343018,299.943420 150.969452,300.846588 
	C150.969452,304.297058 150.969452,307.912537 150.969452,312.023132 
z"/>
<path fill="#0A0A0A" opacity="1.000000" stroke="none" 
	d="
M142.886536,197.815643 
	C145.357697,192.110748 147.678909,186.757629 150.000107,181.404526 
	C150.252655,181.480087 150.505188,181.555649 150.757736,181.631210 
	C150.757736,192.142410 150.757736,202.653595 150.757736,213.283920 
	C145.592178,214.119522 140.471664,214.947830 134.989639,215.834610 
	C137.617676,209.841278 140.177109,204.004349 142.886536,197.815643 
z"/>
</svg>