<svg xmlns="http://www.w3.org/2000/svg" width="64" viewBox="0 0 64 64" xml:space="preserve" height="64"><path fill="#010101" d="M64.125 41.833c-1.431.042-2.862.042-4.349.042V29.79l-.126-.009-1.611 12.05h-3.106l-1.686-11.672-.133.011v11.658h-4.356V22.526h6.463l1.206 8.52.123.013 1.082-8.56 6.435.001c.059.056.059.112.022.246-.052.201-.083.324-.083.446q-.005 8.955.003 17.909c0 .175.075.35.116.525z"/><path fill="#030303" d="m.255 22.398 13.361-.021c1.099-.002 2.199 0 3.316.042-2.42.538-4.495 1.653-6.088 3.573-1.611 1.941-2.336 4.177-2.222 6.698.162 3.575 2.647 7.78 7.952 9.185H.184a29 29 0 0 1-.016-2.958c.802.447 1.56.968 2.35 1.511l.367-.868-2.76-1.81c0-.056 0-.111.039-.243.056-1.479.074-2.881.135-4.274 1.055.662 2.076 1.301 3.071 1.979a.97.97 0 0 1 .373.616c.097.784.17 1.576.176 2.365.005.57.276.765.78.798v-2.907l2.475 1.575.624-1.016-2.58-1.594 2.455-1.316-.511-.755c-.864.459-1.7.911-2.545 1.343-.144.074-.379.149-.488.084-1.193-.708-2.37-1.443-3.595-2.198 1.149-.7 2.252-1.354 3.335-2.042.305-.194.538-.191.845-.021.807.446 1.631.86 2.46 1.293l.492-.76-2.451-1.29 2.589-1.615-.63-.989-2.471 1.569v-2.936c-.556.036-.789.296-.789.87-.001.768-.09 1.537-.159 2.304-.015.173-.045.424-.16.497-1.147.739-2.311 1.447-3.47 2.163 0 0 0-.063.039-.129.054-1.502.069-2.939.106-4.411.876-.652 1.73-1.269 2.597-1.895l-.351-.833C1.72 24.527.988 25.03.253 25.471c-.001-1.064.001-2.068.003-3.072"/><path fill="#f8f8f8" d="M.125 31.308c1.159-.774 2.323-1.482 3.468-2.22.114-.074.144-.324.16-.497.068-.767.158-1.536.159-2.304 0-.573.233-.833.789-.87v2.936l2.471-1.569.63.989-2.589 1.615 2.451 1.29-.492.76c-.829-.432-1.653-.847-2.46-1.293-.307-.17-.539-.173-.845.021-1.082.688-2.186 1.342-3.335 2.042 1.225.755 2.402 1.49 3.595 2.198.11.065.344-.01.488-.084.845-.433 1.681-.885 2.545-1.343l.511.755-2.455 1.317 2.58 1.594-.624 1.016-2.475-1.575v2.907c-.504-.033-.775-.228-.78-.798a21 21 0 0 0-.176-2.365.98.98 0 0 0-.373-.616c-.995-.678-2.015-1.318-3.081-2.007-.086-.062-.122-.076-.163-.08z"/><path fill="#f5f5f5" d="m.256 25.531 2.26-1.549.351.833-2.628 1.897a.2.2 0 0 1-.114.038c0-.338 0-.675.03-1.073.075-.071.1-.099.102-.146"/><path fill="#f7f7f7" d="M.125 37.806a76 76 0 0 1 2.759 1.754l-.367.868a69 69 0 0 0-2.35-1.569c-.042-.321-.042-.659-.042-1.053"/><path fill="#1c1c1c" d="M64.125 41.566c-.04-.116-.116-.291-.116-.466q-.008-8.954-.003-17.909c0-.122.03-.245.083-.404.036 6.215.036 12.468.036 18.779"/><path fill="#303030" d="M.125 33.184c.041-.055.077-.041.12.013-.007 1.43-.025 2.832-.081 4.269-.039-1.385-.039-2.805-.039-4.282m0-6.375c0-.059.062-.058.092-.06a91 91 0 0 1-.053 4.342c-.039-1.385-.039-2.804-.039-4.282m.128-1.339c.001.107-.023.136-.098.15-.03-1.039-.03-2.083-.03-3.186.022-.056.044-.053.098-.043.03 1.012.029 2.015.03 3.08"/><path fill="#020202" d="M27.625 37.75v3.913h-4.963V22.601h4.947v6.778h1.509v-6.786h4.98v19.072h-4.953v-7.984h-1.52z"/><path fill="#010101" d="M41.908 41.791c-1.362.009-2.669.009-4.011.009l-.001-3.247c.032-.02.065-.058.097-.057 1.483.031 1.763-.23 1.765-1.705.005-4.519.003-9.039.004-13.558v-.705h4.996c.008.073.024.148.024.224-.006 5.186-.011 10.371-.027 15.557-.002.476-.024.965-.131 1.425-.279 1.211-1.161 1.866-2.716 2.056"/><path fill="#030303" d="M16.912 36.48c-2.582-1.252-3.686-3.889-2.64-6.211.779-1.729 2.701-2.921 4.563-2.807v9.47a450 450 0 0 1-1.923-.453"/><path fill="#070707" d="M12.511 26.868c-.201-.543-.387-1.04-.615-1.648l4.542 1.911c-.531.389-1.1.724-1.563 1.168-.456.437-.805.986-1.214 1.502-.373-.948-.754-1.918-1.15-2.934m.983 3.608c-.409 1.212-.37 2.37.07 3.63l-4.637-1.916c1.55-.645 3.003-1.25 4.459-1.849.024-.01.079.053.108.136m-1.135 8.374c-.134.058-.223.099-.42.188l1.73-4.336 2.592 2.49z"/><path fill="#0b0b0b" d="M18.871 39.003v2.613l-.1.036-1.903-4.368 2.002.322z"/><path fill="#0a0a0a" d="m17.861 24.727.889-2.051.095.028v3.957l-1.971.319.987-2.252"/></svg>